PathFileType	4	(X/Y/Z)	Patient4_TMGait_0pt8_01_left_35.trc.trc
DataRate	CameraRate	NumFrames	NumMarkers	Units	OrigDataRate	OrigDataStartFrame	OrigNumFrames
88.607594936709	88.607594936709	6	33	mm	88.607594936709	53	       141
Frame#	Time	Sacral			L.Shoulder			Chest			R.Shoulder			Neck			R.ASIS			L.ASIS			R.Thigh.Superior			R.Thigh.Lateral			R.Thigh.Inferior			R.Patella			L.Thigh.Superior			L.Thigh.Lateral			L.Thigh.Inferior			L.Patella			L.Shank.Superior			L.Shank.Lateral			L.Shank.Inferior			R.Shank.Superior			R.Shank.Lateral			R.Shank.Inferior			R.Heel			R.Midfoot.Superior			R.Midfoot.Lateral			R.Toe			L.Heel			L.Midfoot.Lateral			L.Midfoot.Superior			L.Toe			L.Elbow			L.Wrist			R.Elbow			R.Wrist			
		X1	Y1	Z1	X2	Y2	Z2	X3	Y3	Z3	X4	Y4	Z4	X5	Y5	Z5	X6	Y6	Z6	X7	Y7	Z7	X8	Y8	Z8	X9	Y9	Z9	X10	Y10	Z10	X11	Y11	Z11	X12	Y12	Z12	X13	Y13	Z13	X14	Y14	Z14	X15	Y15	Z15	X16	Y16	Z16	X17	Y17	Z17	X18	Y18	Z18	X19	Y19	Z19	X20	Y20	Z20	X21	Y21	Z21	X22	Y22	Z22	X23	Y23	Z23	X24	Y24	Z24	X25	Y25	Z25	X26	Y26	Z26	X27	Y27	Z27	X28	Y28	Z28	X29	Y29	Z29	X30	Y30	Z30	X31	Y31	Z31	X32	Y32	Z32	X33	Y33	Z33	

53	39.196857142857	874.678720897441	1012.915216403161	439.498826429979	1053.381238185731	1442.703685711142	269.337818697127	1151.522497960610	1373.776982977428	433.667098824053	1059.255600580087	1442.616738954439	606.140645337188	1031.094257674096	1501.741703475310	426.270128619262	1097.614699244036	950.274908574493	563.468845393833	1092.962441992434	967.869012551424	289.558225639711	1182.917966517521	782.164843809227	540.550124525659	1142.849337256296	661.736817115376	615.931016784959	1237.710578166625	622.977202906636	543.000631319898	1255.781730812719	508.330626282749	567.552860307375	1131.504298097296	750.851340157568	315.175344202583	1032.894770468153	639.147393147267	259.533471285936	1115.885671693769	557.517910025185	319.008315251165	1112.977889215320	489.487792893071	330.080376337186	1086.570154899699	418.219368302436	324.774905420622	993.913060744960	303.109468999205	281.137002794024	1048.839654592027	193.451488315350	352.097048548509	1175.481119618930	435.286847821901	570.574359078041	1047.705183870390	405.051438484217	623.659645787832	1029.586163504033	296.563223038527	575.074085110835	826.191983863647	245.594931258817	534.397953568328	989.280505820066	181.266705961579	587.125351165569	877.386418663044	183.953399249971	611.872773983831	1047.364084339932	66.809420217896	617.930017157673	924.077737039144	38.609929120047	407.660193573173	991.406191695736	35.600425980173	321.046181737718	1076.249753330809	96.409353182290	341.980785858435	1202.251437534498	45.208102641934	303.226545970612	1048.089392876470	1097.003271341196	132.447832524320	1158.951932765863	859.585668525635	139.056216457066	1028.657161592952	1091.388683242176	710.921423661780	1258.362068916655	978.742233886919	697.769418044936	
54	39.208142857143	873.539808601995	1012.925013460258	438.062810332068	1054.149297497618	1443.110207493251	269.074269053369	1151.051084222767	1373.734203971656	433.915787165229	1057.788103555179	1442.359696676198	605.924593741908	1030.984593121073	1501.911676038443	425.985986347042	1096.100564391117	951.188712173666	562.911438497976	1092.690135411255	968.323746207315	288.753391029588	1183.967891551794	786.248821355779	539.722793301511	1146.837622228323	665.165079191335	615.808192602780	1242.301855267013	628.238876701114	542.788103509108	1263.232574835789	514.441062886658	567.558360767115	1128.531097198777	749.852100367592	315.095949491335	1028.171540879679	639.283197369822	259.029579575442	1109.626986306642	556.563706113558	318.874582938564	1105.667626829875	488.787885654564	330.117834977302	1079.135697066442	417.901503016175	324.656217784798	986.023458387434	303.208942058936	281.011909739982	1040.337009752819	193.305498857250	352.004726972108	1185.607690234163	438.963008270749	570.966805109664	1059.505231750008	403.463941920668	624.559400353738	1045.638370999955	294.190133690404	576.163384609793	844.394430771004	234.891902579088	536.535533804994	1010.214019482593	177.359322476207	588.799526887948	898.348414153167	175.535273621148	613.896934355866	1072.832707036569	65.247114198704	619.367089125188	914.953959106230	38.684238725812	407.619847706444	982.336426986227	35.616799433824	321.024639603704	1067.246683898113	96.342497461664	341.947565791316	1193.238444938314	44.987108700735	303.174680123757	1058.689401462090	1098.797289984200	129.004176642547	1182.190118636145	867.638447674359	136.056586029031	1018.976827195493	1091.527864487664	709.451712718057	1237.605397022583	956.235829803332	700.804988475485	
55	39.219428571429	872.425276480168	1012.825943536895	436.752278073988	1055.054725844948	1443.441459964478	268.931497849454	1150.714134194657	1373.528559094180	434.242030870882	1056.526032924630	1441.943324605400	605.804757372727	1030.981174748650	1501.962507927238	425.818418776690	1094.637118963697	951.981314124272	562.457443395896	1092.499836890040	968.674563950309	287.992859666677	1184.713800225498	789.927938602714	539.068560623161	1150.221658203770	668.244543048634	615.703102072054	1246.122975102151	632.955696857042	542.542704045721	1269.743401979829	520.258680531471	567.510589026166	1125.470513993101	748.779695914681	315.155205630519	1023.472393392240	639.375421640502	258.583437562457	1103.337359853034	555.596929014304	318.833183034055	1098.337104889612	488.092523610736	330.196413721596	1071.695123046737	417.578801848436	324.577676300281	978.137504247078	303.300707918701	280.926739620538	1031.836103046709	193.159173975396	351.942108930115	1195.161046476135	442.289788224656	571.384606754562	1071.253982779384	401.043540063332	625.728688378208	1062.167882496795	291.092683025495	577.566058015260	863.739998565677	222.608035296623	539.281231903681	1032.276350221872	172.704743499776	590.870135058957	920.686970480199	165.947785092425	616.502551342716	1099.870533356027	63.414300174124	621.257038948378	905.839629012131	38.752757074681	407.591940038296	973.266116224675	35.634224049532	321.010638866347	1058.246021603185	96.279733963119	341.925432813286	1184.220656695440	44.774717593450	303.129526298154	1068.745264632966	1100.873003459188	125.786740234577	1204.954341602761	876.920901956778	133.587859330522	1010.059773292881	1091.615421072547	708.115198614833	1215.217546259239	934.880194450450	703.786270793865	
56	39.230714285714	871.338697352700	1012.626700798489	435.575297067575	1056.104853992644	1443.675316766153	268.915463118174	1150.522045886739	1373.140888086732	434.652167260570	1055.479595034041	1441.343240267440	605.792159709336	1031.099252756309	1501.882034985716	425.769231232381	1093.226002763521	952.607744768072	562.105172924283	1092.359253193384	968.896555692996	287.292788916252	1185.147370546181	793.111096988524	538.556615047580	1152.962142518443	670.888117752182	615.594907869542	1249.121220586668	637.005520846060	542.235703550145	1275.244692614147	525.668760956342	567.382167142728	1122.323379344673	747.636244758839	315.343331571548	1018.805013660673	639.418276394270	258.193841608737	1097.037883539523	554.616451093708	318.866522712140	1091.021235014345	487.399895333971	330.290532864466	1064.267049317364	417.245388641036	324.527925462497	970.263234134769	303.383411180533	280.870265256768	1023.341545338014	193.009248779647	351.903568701510	1204.062926963276	445.241049319207	571.813990224759	1082.951449164244	397.868126553796	627.150703058841	1079.134113087519	287.427206226474	579.252831736317	884.308517960519	209.047098259074	542.581166432392	1055.409476778401	167.560823515971	593.303526049959	944.402423073785	155.511253540657	619.638260168548	1128.302282970019	61.617862080280	623.555323177607	896.739906058046	38.816003993323	407.572147184436	964.195673688449	35.651522952804	321.002941582670	1049.248712057723	96.219640981913	341.913448260798	1175.197679343045	44.567781053516	303.091456036859	1078.200759543580	1103.150404609210	122.789729396221	1227.099131038920	887.395950029579	131.637461021010	1001.824703299088	1091.591388481818	706.893192035485	1191.324946870904	914.978495330428	706.667393225518	
57	39.242000000000	870.291446129126	1012.338631395457	434.539854403277	1057.295442222178	1443.794371155136	269.033286806333	1150.479688110026	1372.560384795262	435.151534623320	1054.655227676949	1440.545690609025	605.896469113248	1031.347652348348	1501.662308275741	425.842413093693	1091.872636693154	953.028439461934	561.851944770854	1092.231381416110	968.967026255358	286.674166630490	1185.259930781913	795.713392814457	538.156681211853	1155.015015223373	673.017395581881	615.471053843376	1251.250212819993	640.281036746219	541.854802118901	1279.677195978215	530.567637567231	567.158155783354	1119.104083458931	746.423636534483	315.636749827338	1014.171557684068	639.408385854840	257.860658426992	1090.749482499726	553.621444942816	318.953718595421	1083.754497506866	486.706212750169	330.376535319950	1056.867691501308	416.896559997151	324.497072604766	962.406395138583	303.457968212171	280.833734893262	1014.855793243194	192.853285105367	351.884160011773	1212.243562864586	447.804275836091	572.246357004237	1094.593527189577	394.036158705720	628.804262011643	1096.481154472466	283.370381316015	581.181075324284	906.155312392351	194.546541526046	546.350984583954	1079.537732162986	162.209972222684	596.052207774009	969.465813016430	144.566616878281	623.220049176736	1157.924967600604	60.172150210603	626.185796392565	887.657994524568	38.875756142946	407.555599494306	955.125205893713	35.667601002947	321.000708834478	1040.255051540830	96.160304458632	341.910216349968	1166.169040895803	44.362977773204	303.060578893175	1087.036280316854	1105.551605230497	120.011950475652	1248.484524344793	899.009093494113	130.185737315510	994.169725384915	1091.431626076026	705.758805023084	1166.117884375165	896.811470706516	709.402662075777	
58	39.253285714286	869.303836612702	1011.971895274431	433.653341609597	1058.612045683103	1443.786337342300	269.291801186931	1150.586669441193	1371.784787755256	435.743828744556	1054.056007345683	1439.548885949007	606.125032718767	1031.728492712844	1501.299656658905	426.042823979191	1090.589614995995	953.213474258684	561.696918068073	1092.084556857820	968.868968903749	286.158252972126	1185.044555214250	797.659304934101	537.844462640362	1156.337684229379	674.566352765121	615.331977292810	1252.475346497538	642.695388930044	541.406092293414	1282.999701019501	534.866834107117	566.838142229515	1115.836920026384	745.142922546443	316.001074886907	1009.571516926222	639.345014570475	257.584522238842	1084.493410751004	552.612111116406	319.073390575850	1076.569237324721	486.004945992891	330.436124329578	1049.511334107394	416.528692136156	324.477711504233	954.571742205783	303.527503737489	280.811225233924	1006.379825644508	192.689690775345	351.880081238312	1219.645311986504	449.977318958659	572.677988184446	1106.164706075939	389.662719953654	630.661388500622	1114.128363405646	279.110798616724	583.293557178589	929.289081800728	179.467774808671	550.474427016925	1104.547421434132	156.939605756251	599.043332482394	995.799792633104	133.461374198446	627.129845987893	1188.496483605064	59.378463292595	629.040130478963	878.594414817330	38.934910142852	407.537974072316	946.054684170333	35.681704515055	321.003562194522	1031.264834352873	96.099659803118	341.914042249501	1157.134261189527	44.157140659039	303.036857418347	1095.265006968932	1108.005884988215	117.457487205211	1268.978147560520	911.687609582439	129.208934827727	986.982423663654	1091.146963304111	704.682626229639	1139.849447198532	880.626975709964	711.948999691471	
